<?xml version="1.0" encoding="UTF-8" standalone="no"?>
<!-- Created with Inkscape (http://www.inkscape.org/) -->

<svg
   width="210mm"
   height="297mm"
   viewBox="0 0 210 297"
   version="1.1"
   id="svg18794"
   inkscape:version="1.1 (c68e22c387, 2021-05-23)"
   sodipodi:docname="botonIzq.svg"
   xmlns:inkscape="http://www.inkscape.org/namespaces/inkscape"
   xmlns:sodipodi="http://sodipodi.sourceforge.net/DTD/sodipodi-0.dtd"
   xmlns="http://www.w3.org/2000/svg"
   xmlns:svg="http://www.w3.org/2000/svg">
  <sodipodi:namedview
     id="namedview18796"
     pagecolor="#ffffff"
     bordercolor="#666666"
     borderopacity="1.0"
     inkscape:pageshadow="2"
     inkscape:pageopacity="0.0"
     inkscape:pagecheckerboard="0"
     inkscape:document-units="mm"
     showgrid="false"
     inkscape:zoom="0.49764326"
     inkscape:cx="59.279412"
     inkscape:cy="836.94492"
     inkscape:window-width="1920"
     inkscape:window-height="991"
     inkscape:window-x="-9"
     inkscape:window-y="-9"
     inkscape:window-maximized="1"
     inkscape:current-layer="layer3" />
  <defs
     id="defs18791">
    <filter
       inkscape:collect="always"
       style="color-interpolation-filters:sRGB"
       id="filter30851"
       x="-0.031277905"
       y="-0.030330046"
       width="1.0624924"
       height="1.0607363">
      <feGaussianBlur
         inkscape:collect="always"
         stdDeviation="1.3231564"
         id="feGaussianBlur30853" />
    </filter>
  </defs>
  <g
     inkscape:groupmode="layer"
     id="layer3"
     inkscape:label="figura"
     style="display:inline;opacity:1">
    <g
       id="g30892"
       transform="translate(-4.673443,-2.1273162)">
      <g
         id="g30849"
         transform="translate(6.5286297,2.0719797)"
         style="opacity:0.79;filter:url(#filter30851)">
        <path
           style="opacity:1;fill:#000000;fill-opacity:1;fill-rule:evenodd;stroke:#000000;stroke-width:9.96065;stroke-linecap:round;stroke-linejoin:round;stroke-miterlimit:4;stroke-dasharray:none;stroke-opacity:1;paint-order:stroke fill markers"
           d="M 388.18944,839.91902 C 372.7592,837.51489 351.51093,827.95763 329.47084,813.508 274.29131,777.33194 213.50093,707.48966 150.04304,607.36279 c -14.42716,-22.76386 -24.24249,-39.22582 -23.70725,-39.76105 0.24606,-0.24607 4.01823,4.19122 8.38259,9.86066 11.30461,14.68501 28.57514,35.66259 46.08738,55.97985 81.90857,95.02824 155.15925,157.59615 198.95759,169.9419 9.00103,2.53719 25.9525,3.63471 30.90323,2.00082 5.36045,-1.7691 6.43228,-3.49044 4.24858,-6.82317 -2.64024,-4.02952 -14.7914,-15.87757 -24.98502,-24.36177 -10.28472,-8.56001 -10.18355,-8.90633 2.63583,-9.0231 14.29614,-0.13023 44.44655,-5.2822 51.27607,-8.76182 3.90391,-1.98904 3.52886,-4.86904 -1.00474,-7.71554 -10.32464,-6.4825 -27.90146,-10.95919 -60.03296,-15.28997 -11.05209,-1.48963 -20.48366,-3.06506 -20.95904,-3.50093 -0.47622,-0.43664 0.11065,-5.00622 1.30695,-10.17648 2.50356,-10.82004 3.61471,-20.65656 2.7311,-24.17716 -0.66311,-2.64205 -2.43108,-3.6504 -13.22108,-7.54068 -20.07675,-7.23855 -46.55596,-24.61121 -77.36466,-50.75795 -8.15468,-6.92071 -21.60182,-19.8874 -21.60182,-20.83 0,-0.63719 23.57399,-13.40115 38.17996,-20.67224 6.33821,-3.15527 7.21623,-3.88219 5.52605,-4.57509 -1.83938,-0.75406 -72.64226,-13.11533 -141.60868,-24.72305 l -28.07353,-4.72504 31.08774,-5.22318 c 71.56276,-12.02356 138.65146,-23.82846 139.4443,-24.53659 0.46741,-0.41745 -8.6606,-5.59645 -20.28446,-11.50889 -11.62386,-5.91244 -21.95316,-11.38652 -22.95402,-12.16465 -1.68804,-1.31238 -1.15427,-2.05994 7.37582,-10.33016 18.47891,-17.91594 57.47037,-47.18753 73.93648,-55.50545 3.4592,-1.74742 11.03683,-4.96056 16.83918,-7.14029 5.80235,-2.17974 11.1722,-4.47875 11.93301,-5.10891 1.89527,-1.56983 0.97854,-14.34926 -1.91178,-26.65043 -1.21269,-5.16118 -1.81594,-9.73169 -1.34056,-10.15667 0.47538,-0.42499 10.22145,-1.99526 21.65793,-3.48948 24.22571,-3.1652 38.26401,-6.14764 49.7054,-10.55991 15.5399,-5.99282 17.4401,-10.11195 6.36328,-13.79392 -9.53277,-3.16871 -29.767,-6.38758 -44.49499,-7.07828 -7.06521,-0.33133 -13.05328,-0.93809 -13.30683,-1.34835 -0.25355,-0.41026 4.43228,-4.82743 10.41295,-9.81595 10.38601,-8.66303 19.72913,-18.0039 22.99728,-22.99174 3.30284,-5.04077 -4.18937,-7.90295 -18.30968,-6.99467 -23.64422,1.5209 -51.82541,15.92481 -88.48118,45.22434 -48.12892,38.4702 -118.04172,112.12225 -171.62118,180.80029 -3.79253,4.86125 -7.14054,8.5936 -7.44002,8.29412 -1.24978,-1.24978 35.97186,-60.66844 53.84616,-85.95717 66.89541,-94.64428 130.22204,-155.70562 183.26508,-176.7094 13.82229,-5.47329 24.20363,-7.55093 37.46429,-7.49782 10.37532,0.0416 13.01031,0.40437 18.89343,2.6014 11.33818,4.23421 22.38566,11.52409 32.35563,21.35046 9.69437,9.55474 14.61804,16.31828 20.84549,28.63497 9.86684,19.51473 9.04518,28.77526 -3.81399,42.9851 -10.38966,11.48095 -26.6852,23.5894 -79.33265,58.94839 -46.72163,31.3791 -59.41581,41.33525 -64.11246,50.28399 -2.69673,5.13818 -2.87542,14.65172 -0.36366,19.36097 2.15631,4.04282 8.64686,8.86674 14.14299,10.51138 3.09637,0.92655 20.40932,1.18422 69.92548,1.04075 107.21474,-0.31068 178.95489,-3.61054 181.89434,-8.36667 0.98338,-1.59114 1.74678,-23.65212 2.95097,-85.27641 0.74278,-38.01179 1.27238,-49.95714 2.25661,-50.89869 1.19839,-1.14644 19.23011,-5.80001 52.3831,-13.51887 10.7888,-2.51191 14.09663,-2.95855 14.69851,-1.98467 0.42718,0.69118 1.05501,5.6136 1.39518,10.93872 0.97561,15.27242 2.97286,374.29962 2.16055,388.38315 -0.58724,10.18166 -1.01961,12.64346 -2.22052,12.64346 -1.95769,0 -68.8708,-17.98336 -69.59098,-18.70305 -0.3047,-0.30451 -0.67607,-31.93696 -0.82527,-70.29432 l -0.27126,-69.74068 -3.56471,-1.48944 c -10.79994,-4.5125 -47.92704,-5.94488 -155.64576,-6.00483 -102.20819,-0.0569 -97.64907,-0.32577 -108.20486,6.38164 -12.31805,7.82721 -10.5701,21.61625 4.56229,35.99054 9.35022,8.88181 20.69204,16.89347 54.41051,38.43467 46.64473,29.79919 64.33508,42.6571 79.44221,57.7411 11.87572,11.85753 14.97679,17.82411 14.27402,27.46367 -1.9159,26.27966 -30.3618,59.19662 -60.65985,70.19421 -7.63042,2.76971 -19.35597,3.0551 -33.69969,0.82026 z"
           id="path30562"
           transform="scale(0.26458333)" />
        <path
           style="opacity:1;fill:#000000;fill-opacity:1;fill-rule:evenodd;stroke:#000000;stroke-width:9.96065;stroke-linecap:round;stroke-linejoin:round;stroke-miterlimit:4;stroke-dasharray:none;stroke-opacity:1;paint-order:stroke fill markers"
           d="m 309.71786,730.90822 c -15.70711,-10.40395 -75.0681,-63.73167 -150.48339,-135.18867 -9.52571,-9.02574 -22.67249,-23.6465 -23.88104,-26.55851 -0.15725,-0.37889 4.8162,0.16562 11.0521,1.21002 20.2328,3.38861 69.73242,21.28087 82.95298,29.98439 l 5.30244,3.49077 -3.23422,0.66601 c -1.77882,0.36631 -6.8777,0.98305 -11.33085,1.37055 -9.36353,0.81477 -11.80179,1.76503 -10.92651,4.25836 1.63809,4.66633 11.46929,15.54838 41.96776,46.4537 33.56416,34.01191 42.67512,43.80094 50.96509,54.75811 8.63542,11.41376 15.08666,22.60655 13.02984,22.60655 -0.44419,0 -2.88058,-1.37308 -5.4142,-3.05128 z"
           id="path30638"
           transform="scale(0.26458333)" />
        <path
           style="opacity:1;fill:#000000;fill-opacity:1;fill-rule:evenodd;stroke:#000000;stroke-width:9.96065;stroke-linecap:round;stroke-linejoin:round;stroke-miterlimit:4;stroke-dasharray:none;stroke-opacity:1;paint-order:stroke fill markers"
           d="m 141.51608,546.31825 c 10.40298,-12.3302 82.97115,-80.62377 126.91089,-119.43527 25.31292,-22.35863 44.24671,-37.54786 46.80442,-37.54786 1.29162,0 -1.82601,6.5046 -6.35538,13.25981 -9.32242,13.90366 -20.78494,26.69785 -55.20162,61.61472 -40.48495,41.07332 -47.15823,48.90966 -43.87607,51.52295 0.65791,0.52384 6.13309,1.46229 12.16707,2.08544 6.03398,0.62315 11.20048,1.36262 11.48111,1.64325 1.3737,1.37369 -13.7343,9.49438 -28.98276,15.57851 -17.90741,7.14504 -45.42491,15.86083 -55.34951,17.53119 -5.20078,0.87533 -10.74736,1.85263 -12.32574,2.1718 -2.64683,0.53522 -2.27953,-0.1193 4.72759,-8.42454 z"
           id="path30677"
           transform="scale(0.26458333)" />
      </g>
      <path
         id="path17243"
         style="opacity:1;fill:#ffffff;fill-opacity:1;fill-rule:evenodd;stroke:#000000;stroke-width:2.623;stroke-linecap:round;stroke-linejoin:round;stroke-miterlimit:4;stroke-dasharray:none;stroke-opacity:1;paint-order:stroke fill markers"
         d="m 106.96258,74.235685 c 0.30796,0.004 0.61332,0.0129 0.91606,0.03 2.56931,0.14876 3.66731,0.44494 6.07007,1.63492 5.27765,2.61381 9.30366,6.70129 12.07701,12.26311 2.15783,4.32742 2.42231,6.67492 1.02015,9.06412 -2.31173,3.939115 -6.88012,7.568165 -22.8558,18.158175 -15.505393,10.27825 -17.721893,12.28681 -17.726173,16.05024 -0.002,2.07869 0.89925,3.36276 3.26654,4.65336 1.27347,0.69517 2.578834,0.74162 19.496243,0.70004 26.54631,-0.0654 46.72604,-0.99169 47.93585,-2.19984 0.26523,-0.26485 0.49054,-6.79483 0.62472,-18.11163 0.12754,-10.76286 0.36476,-17.835195 0.60481,-18.050725 0.21707,-0.19484 4.11133,-1.21553 8.65428,-2.26742 4.54293,-1.05192 8.55267,-1.98969 8.91127,-2.08465 0.49028,-0.1299 0.70965,0.20406 0.88503,1.34804 0.12818,0.83669 0.36171,25.611975 0.5184,55.056015 0.27945,52.51542 0.27068,53.52991 -0.48184,53.30589 -0.42192,-0.12561 -4.57544,-1.24001 -9.22917,-2.47676 -4.65374,-1.23675 -8.77822,-2.34585 -9.16604,-2.46458 -0.65816,-0.2017 -0.70448,-1.44951 -0.70448,-18.74413 v -18.52702 l -1.33366,-0.55716 c -2.25269,-0.94124 -18.37054,-1.54993 -41.98097,-1.58508 -20.351929,-0.0302 -22.354869,0.0262 -24.537283,0.70004 -5.51476,1.70264 -6.26275,5.4053 -2.01044,9.95137 2.06133,2.2037 6.514574,5.33315 16.877693,11.86103 9.32941,5.87672 15.48759,10.34887 18.91802,13.74074 4.38101,4.33178 5.03866,6.41752 3.4493,10.93942 -2.32463,6.61407 -7.86456,12.35525 -14.71769,15.25274 -2.18327,0.92309 -2.79286,1.00111 -6.44115,0.82963 -4.63894,-0.21808 -7.425209,-1.03299 -12.871209,-3.76278 -13.209184,-6.62111 -27.673954,-20.90563 -43.316844,-42.77741 -5.98782,-8.3721 -17.34513,-26.29081 -17.34513,-27.36629 0,-1.0941 9.70537,-16.90722 15.13309,-24.6569 8.46731,-12.08959 16.94288,-22.41459 24.9726,-30.420155 12.81846,-12.77988 24.840404,-19.58338 34.386743,-19.48628 z m -0.73329,9.7797 c -2.44044,0.006 -5.63323,0.58438 -8.022899,1.55849 -12.915544,5.26479 -32.361664,22.763345 -54.152154,48.728975 -4.67531,5.57114 -11.48727,14.19349 -11.31493,14.32338 0.0812,0.0613 10.55399,-1.69528 23.27232,-3.90346 l 23.12497,-4.01533 -6.14428,-3.09374 c -3.37951,-1.70199 -6.1466,-3.22906 -6.14761,-3.39282 -0.006,-0.94667 10.29294,-9.65789 15.98047,-13.517 4.96785,-3.37083 7.05709,-4.47908 10.968224,-5.81974 2.84949,-0.97674 2.94749,-1.0544 3.05831,-2.41363 0.063,-0.77236 -0.27087,-2.98374 -0.74214,-4.91476 -0.47129,-1.93103 -0.80353,-3.56541 -0.73773,-3.63208 0.0658,-0.0667 2.50973,-0.41547 5.430959,-0.77427 2.92123,-0.35884 6.70333,-0.9492 8.40395,-1.31149 5.4082,-1.15208 9.51433,-3.096825 8.83261,-4.184795 -0.68741,-1.09695 -10.04473,-2.80969 -15.27488,-2.79468 -1.27422,0.004 -2.31141,-0.12968 -2.30286,-0.29574 0.009,-0.16633 1.10312,-1.12344 2.43468,-2.12898 2.60991,-1.9708 7.16541,-6.57004 7.16112,-7.22979 -10e-4,-0.22234 -0.50234,-0.59406 -1.11321,-0.82745 -0.65164,-0.24898 -1.60564,-0.36323 -2.71492,-0.36109 z M 83.524127,102.80272 c 0.0812,-0.002 0.13246,0.0238 0.15175,0.0819 0.26552,0.7804 -2.1518,4.58565 -5.47969,8.62327 -1.77603,2.15476 -7.46131,8.08084 -12.63305,13.16918 -8.29789,8.16405 -10.76565,11.05452 -10.04554,11.76575 0.089,0.0879 1.22393,0.24358 2.52218,0.34671 1.29822,0.1031 2.81399,0.27953 3.36844,0.39099 0.99034,0.19913 0.99349,0.21242 0.20599,0.81082 -2.80535,2.13174 -10.20422,5.05576 -21.10127,8.33639 -3.64978,1.09881 -6.90741,1.99957 -7.23977,2.006 -0.3324,0.004 0.41142,-0.93917 1.65376,-2.10015 1.24232,-1.161 7.10154,-6.69522 13.01966,-12.29744 19.72754,-18.6746 33.92478,-31.08398 35.57749,-31.13349 z m -50.78482,45.82683 c -0.17234,0.1299 6.63962,8.75336 11.31493,14.3245 21.79049,25.96561 41.23661,43.46416 54.152154,48.72895 2.389669,0.97411 5.582459,1.55049 8.022899,1.55739 1.10928,0.002 2.06328,-0.11103 2.71492,-0.36 0.61087,-0.23338 1.11182,-0.60622 1.11321,-0.82854 0.004,-0.65977 -4.55121,-5.25789 -7.16112,-7.2287 -1.33156,-1.00551 -2.42679,-1.9638 -2.43468,-2.13007 -0.009,-0.16612 1.02864,-0.29936 2.30286,-0.29575 5.23015,0.015 14.58747,-1.69771 15.27488,-2.79466 0.68172,-1.08797 -3.42441,-3.03271 -8.83261,-4.18482 -1.70062,-0.36229 -5.48272,-0.95265 -8.40395,-1.31149 -2.921229,-0.35878 -5.365189,-0.70767 -5.430959,-0.77425 -0.0658,-0.0667 0.26644,-1.70105 0.73773,-3.63207 0.47127,-1.93103 0.80511,-4.1424 0.74214,-4.91479 -0.11082,-1.35922 -0.20878,-1.43688 -3.05831,-2.41363 -3.911134,-1.34064 -6.000374,-2.44889 -10.968224,-5.81974 -5.68753,-3.85911 -15.98635,-12.57031 -15.98047,-13.51698 0.001,-0.16376 2.7681,-1.68971 6.14761,-3.3917 l 6.14428,-3.09485 -23.12497,-4.01533 c -12.71833,-2.20818 -23.19104,-3.96475 -23.27232,-3.90347 z m 0.5339,0.29244 c 0.33237,0.006 3.59,0.90828 7.23978,2.0071 10.89704,3.28063 18.29591,6.20355 21.10127,8.33527 0.78745,0.5984 0.7843,0.61271 -0.20599,0.81193 -0.55446,0.11146 -2.07023,0.28686 -3.36845,0.3899 -1.29825,0.1031 -2.43316,0.25878 -2.52218,0.34671 -0.7201,0.71123 1.74765,3.6017 10.04554,11.76575 5.17174,5.08834 10.85702,11.0144 12.63305,13.16918 3.32789,4.03762 5.74521,7.84287 5.4797,8.62327 -0.0193,0.0581 -0.0705,0.0842 -0.15176,0.0819 -1.65272,-0.0495 -15.84995,-12.45889 -35.5775,-31.13349 -5.91811,-5.60221 -11.77733,-11.13644 -13.01965,-12.29744 -1.24235,-1.16098 -1.98616,-2.10536 -1.65377,-2.10015 z"
         inkscape:export-filename="C:\xampp\htdocs\DIW\webNavidad\recursos\imagenesDisenio\botonIzq.png"
         inkscape:export-xdpi="96"
         inkscape:export-ydpi="96" />
    </g>
  </g>
</svg>
