<?xml version="1.0" encoding="UTF-8" standalone="no"?>
<!-- Created with Inkscape (http://www.inkscape.org/) -->

<svg
   width="210mm"
   height="297mm"
   viewBox="0 0 210 297"
   version="1.1"
   id="svg5"
   inkscape:version="1.1 (c68e22c387, 2021-05-23)"
   sodipodi:docname="procesoBotones.svg"
   xmlns:inkscape="http://www.inkscape.org/namespaces/inkscape"
   xmlns:sodipodi="http://sodipodi.sourceforge.net/DTD/sodipodi-0.dtd"
   xmlns="http://www.w3.org/2000/svg"
   xmlns:svg="http://www.w3.org/2000/svg">
  <sodipodi:namedview
     id="namedview7"
     pagecolor="#ffffff"
     bordercolor="#666666"
     borderopacity="1.0"
     inkscape:pageshadow="2"
     inkscape:pageopacity="0.0"
     inkscape:pagecheckerboard="0"
     inkscape:document-units="mm"
     showgrid="false"
     inkscape:zoom="0.70377385"
     inkscape:cx="179.03479"
     inkscape:cy="468.19017"
     inkscape:window-width="1920"
     inkscape:window-height="991"
     inkscape:window-x="-9"
     inkscape:window-y="-9"
     inkscape:window-maximized="1"
     inkscape:current-layer="layer1" />
  <defs
     id="defs2">
    <inkscape:path-effect
       effect="bspline"
       id="path-effect5689"
       is_visible="true"
       lpeversion="1"
       weight="33.333333"
       steps="2"
       helper_size="0"
       apply_no_weight="true"
       apply_with_weight="true"
       only_selected="false" />
  </defs>
  <g
     inkscape:label="Capa 1"
     inkscape:groupmode="layer"
     id="layer1">
    <path
       id="path857"
       style="color:#000000;fill:#000000;stroke-width:1;-inkscape-stroke:none"
       d="m 117.14503,193.87969 -11.08976,11.08821 18.85363,18.85364 h -12.68709 l -17.342607,-2.68976 v -15.21665 l -11.88867,-3.1874 v 16.56023 0.15452 21.95886 16.56075 l 11.88867,-3.18585 v -15.2182 l 17.346227,-2.68976 h 12.68502 l -18.85518,18.85363 11.08976,11.08977 36.34093,-36.34146 0.21549,-0.0336 -0.0909,-0.091 0.0909,-0.091 -0.21549,-0.0336 z m 0,0.37311 35.90013,35.90013 -39.11079,-6.06578 h 11.61325 L 106.43044,204.9679 Z m -33.890437,8.82065 11.36107,3.04477 v 14.97273 l -11.36107,-1.76216 z m 0,16.52302 11.36107,1.76165 v 2.72903 h 17.598397 l 40.35309,6.2575 -40.36962,6.26008 H 94.615663 v 2.72645 l -11.36107,1.76165 z m 11.62461,1.80248 15.621787,2.42259 H 94.879203 Z m 58.163377,9.14001 -35.89755,35.89754 -10.71459,-10.71459 19.11718,-19.11718 h -11.62255 z m -58.163377,6.32932 h 15.618687 l -15.618687,2.42208 z m -0.26354,2.73059 v 14.97428 l -11.36107,3.04322 v -16.25534 z" />
    <path
       style="fill:none;stroke:#000000;stroke-width:0.264583px;stroke-linecap:butt;stroke-linejoin:miter;stroke-opacity:1"
       d="m 8.4665219,211.12527 c 1.8936661,-8.58311 5.7687131,-7.45294 7.7500051,-4.38546 1.981292,3.06747 2.06914,8.07189 4.716896,11.02235 2.647756,2.95046 7.854913,3.84702 12.859895,4.29529 5.004982,0.44827 9.807522,0.44827 9.12903,-2.69393 -0.678491,-3.14221 -6.837854,-9.42662 -8.131928,-14.35492 -1.294073,-4.92829 2.277388,-8.49992 10.046759,-4.30217 7.769371,4.19776 19.735841,16.16423 19.735589,28.19484 -2.51e-4,12.03061 -11.966721,24.12489 -19.798273,28.38648 -7.831552,4.26159 -11.52806,0.69014 -10.127698,-4.28203 1.400362,-4.97216 7.897686,-11.34442 8.926132,-14.48669 1.028446,-3.14227 -3.412204,-3.05443 -8.523685,-2.56221 -5.11148,0.49221 -10.89344,1.38878 -13.828514,4.33979 -2.935074,2.95101 -3.022922,7.95594 -4.960303,10.96552 -1.93738,3.00958 -5.724325,4.02396 -7.6619382,-4.61697 -1.9376134,-8.64093 -2.0256333,-26.93678 -0.1319669,-35.51989 z"
       id="path5687"
       inkscape:original-d="m 6.4848326,201.41191 c 3.8753074,1.13042 7.7503524,2.26059 11.6251304,3.39049 0.08812,5.00488 0.175964,10.0093 0.263549,15.01356 5.20763,0.89687 10.414789,1.79343 15.621788,2.68976 4.803,2.6e-4 9.60554,2.6e-4 14.40791,0 -6.15935,-6.28441 -12.31871,-12.56883 -18.47847,-18.85364 3.57187,-3.57151 7.14333,-7.14314 10.7146,-10.7151 11.96721,11.96721 23.93368,23.93368 35.90013,35.90013 -11.96669,12.09503 -23.93316,24.18931 -35.90013,36.28357 -3.6964,-3.57134 -7.39291,-7.14279 -11.08977,-10.71459 6.49785,-6.37226 12.99517,-12.74453 19.49236,-19.11718 -4.44055,0.0881 -8.8812,0.17596 -13.32219,0.26355 -5.78193,0.89687 -11.563889,1.79344 -17.346228,2.68976 -0.08759,5.0054 -0.175434,10.01033 -0.263549,15.01511 -3.786833,1.01469 -7.573779,2.02907 -11.3610654,3.04322 -0.08776,-18.29632 -0.175779,-36.59217 -0.264065,-54.88864 z"
       inkscape:path-effect="#path-effect5689" />
    <g
       id="g14458"
       transform="translate(-90.702996,-120.6859)">
      <g
         id="path9852"
         transform="matrix(0.26458333,0,0,0.26458333,16.541772,53.102848)">
        <path
           style="color:#000000;fill:#000000;stroke-width:0;-inkscape-stroke:none"
           d="m 432.77344,531.63281 c -1.1943,0.008 -2.27256,0.25309 -3.19336,0.77344 -1.26448,0.71455 -1.99886,1.87882 -2.30664,3.21289 -0.30778,1.33407 -0.22188,2.845 0.0859,4.39844 0.61577,3.10687 2.12798,6.39891 3.45312,8.70312 10.79688,18.77406 37.07143,37.38873 60.6543,51.38868 23.58286,13.99994 44.49023,23.3457 44.49023,23.3457 l 0.57813,-0.78906 c 0,0 -20.11718,-22.76709 -43.10938,-45.51954 -11.4961,-11.37622 -23.71049,-22.75039 -34.5039,-31.28125 -5.39671,-4.26542 -10.43771,-7.81941 -14.86915,-10.3125 -4.43143,-2.49308 -8.24453,-3.94258 -11.27929,-3.91992 z m 0.008,1 c 2.702,-0.0202 6.42165,1.33834 10.78125,3.79102 4.3596,2.45267 9.36722,5.98141 14.73828,10.22656 10.74212,8.4903 22.94068,19.84555 34.42188,31.20703 21.43698,21.21345 38.9235,40.85606 41.3457,43.58399 -3.15054,-1.43174 -20.5813,-9.42287 -42.08984,-22.19141 -23.52778,-13.96725 -49.71034,-32.6176 -60.29883,-51.0293 -1.28292,-2.23079 -2.75905,-5.46611 -3.33985,-8.39648 -0.2904,-1.46519 -0.35433,-2.85143 -0.0937,-3.98047 0.26049,-1.12904 0.81337,-1.99407 1.82618,-2.56641 0.74727,-0.42229 1.6462,-0.63699 2.70898,-0.64453 z"
           id="path13909" />
        <path
           id="path13911"
           style="color:#000000;fill:#000000;-inkscape-stroke:none"
           d="m 432.77344,531.63281 c -1.1943,0.008 -2.27256,0.25309 -3.19336,0.77344 -1.26448,0.71455 -1.99886,1.87882 -2.30664,3.21289 -0.30778,1.33407 -0.2218,2.845 0.0859,4.39844 0.61575,3.10687 2.12798,6.39891 3.45312,8.70312 9.37362,16.29923 30.41433,32.47369 51.23047,45.61719 -0.40062,0.0108 -0.80575,0.022 -1.22266,0.0371 -2.05122,0.0745 -4.23945,0.22769 -5.98828,0.74609 -0.87439,0.25928 -1.64318,0.61043 -2.22851,1.12891 -0.58534,0.51848 -0.96843,1.2321 -0.99024,2.07422 -0.0435,1.68423 1.15937,3.74922 4.03906,6.6289 2.86383,2.86379 8.03961,5.38101 14.22461,7.63282 6.18505,2.25176 13.37558,4.20941 20.21875,5.82422 13.68635,3.22964 25.99219,5.07812 25.99219,5.07812 l 1.50586,0.23047 -1.07813,-1.07813 -0.0254,-0.0254 c -0.12928,-0.14627 -20.14649,-22.78976 -43.06445,-45.46875 -11.49609,-11.37621 -23.71052,-22.7504 -34.5039,-31.28125 -5.3967,-4.26542 -10.43771,-7.81941 -14.86915,-10.3125 -4.43143,-2.49308 -8.24453,-3.94258 -11.27929,-3.91992 z m 0.008,1 c 2.702,-0.0202 6.42165,1.33834 10.78125,3.79102 4.3596,2.45267 9.36723,5.98141 14.73828,10.22656 10.74211,8.49029 22.94069,19.84556 34.42188,31.20703 15.70558,15.54181 29.15392,30.09844 36.24804,37.91992 -2.92524,-2.51084 -6.5192,-5.44227 -10.48242,-8.33007 -10.20744,-7.43766 -22.78448,-14.63406 -32.60547,-13.29297 -0.51352,0.0701 -1.2251,0.10378 -2.03906,0.13086 -21.16855,-13.26326 -42.78416,-29.7543 -52.16406,-46.06446 -1.28292,-2.23079 -2.75905,-5.46611 -3.33985,-8.39648 -0.2904,-1.46519 -0.35443,-2.85143 -0.0937,-3.98047 0.26049,-1.12904 0.81337,-1.99407 1.82618,-2.56641 0.74727,-0.42229 1.6462,-0.63699 2.70898,-0.64453 z m 55.45508,62.36914 c 8.94588,-0.0186 20.32561,6.44324 29.66992,13.25196 7.67025,5.58897 13.05047,10.5898 15.35742,12.8125 -4.13265,-1.88823 -20.66308,-9.57412 -41.28515,-21.81641 -2.19113,-1.30076 -4.40842,-2.65323 -6.63086,-4.03125 0.23752,-0.0188 0.46399,-0.0405 0.66796,-0.0684 0.72044,-0.0984 1.46258,-0.14686 2.22071,-0.14844 z m -4.64258,0.29883 c 2.63885,1.64823 5.27523,3.26641 7.87305,4.8086 17.87372,10.6107 34.10831,18.4976 40.9707,21.71874 -3.69918,-0.5906 -11.93967,-1.99184 -22.11328,-4.39257 -6.81955,-1.60925 -13.98134,-3.55681 -20.10742,-5.78711 -6.12605,-2.2303 -11.21517,-4.764 -13.85547,-7.4043 -2.80396,-2.80396 -3.77971,-4.7512 -3.75,-5.89844 0.0151,-0.57362 0.22709,-0.97657 0.64844,-1.34961 0.42115,-0.37304 1.06453,-0.6821 1.85351,-0.91601 1.57795,-0.46787 3.71682,-0.63532 5.74219,-0.70899 0.96214,-0.035 1.89095,-0.0476 2.73828,-0.0703 z" />
      </g>
      <g
         id="path10604"
         transform="translate(16.541772,53.102848)">
        <path
           style="color:#000000;fill:#000000;stroke-width:0;-inkscape-stroke:none"
           d="m 128.55664,157.20312 c -0.28729,0.0392 -0.79713,0.0389 -1.33984,0.0586 -0.54272,0.0197 -1.12128,0.0601 -1.58399,0.19726 -0.23135,0.0686 -0.43497,0.16165 -0.58984,0.29883 -0.15487,0.13718 -0.25595,0.32602 -0.26172,0.54883 -0.0115,0.44562 0.30644,0.99199 1.06836,1.75391 0.75772,0.75771 2.12722,1.42374 3.76367,2.01953 1.63646,0.59578 3.53902,1.11376 5.34961,1.54101 3.62118,0.85451 6.87695,1.34375 6.87695,1.34375 l 0.39844,0.0605 -0.28516,-0.28516 c 0,0 -2.0688,-2.05164 -4.76953,-4.01953 -2.70072,-1.96788 -6.02848,-3.87241 -8.62695,-3.51758 z m 0.0352,0.26368 c 2.43988,-0.33318 5.75563,1.51265 8.4375,3.46679 2.46476,1.79596 4.05625,3.38102 4.35351,3.67188 -0.42194,-0.065 -3.01192,-0.45227 -6.35937,-1.24219 -1.80434,-0.42578 -3.69946,-0.94115 -5.32032,-1.53125 -1.62085,-0.5901 -2.96743,-1.2604 -3.66601,-1.95898 -0.74188,-0.74188 -1.00005,-1.25701 -0.99219,-1.56055 0.004,-0.15177 0.0604,-0.25872 0.17188,-0.35742 0.11143,-0.0987 0.28148,-0.1803 0.49023,-0.24219 0.4175,-0.12379 0.98365,-0.16801 1.51953,-0.1875 0.53589,-0.0195 1.03795,-0.0139 1.36524,-0.0586 z"
           id="path13825" />
      </g>
    </g>
    <g
       id="path5572"
       transform="translate(-24.583066,-12.859606)"
       style="fill:#ff0000;fill-opacity:1;fill-rule:evenodd;stroke:#000000;stroke-opacity:1">
      <path
         style="color:#000000;fill:#ff0000;fill-opacity:1;fill-rule:evenodd;stroke:#000000;stroke-opacity:1;-inkscape-stroke:none"
         d="m 105.30273,128.51953 c -2.61865,-0.0158 -5.28626,1.40488 -7.369136,3.4668 -2.082879,2.06191 -3.58468,4.7694 -3.851563,7.36719 -0.102404,0.99678 0.373596,2.03865 1.214844,3.0996 0.841248,1.06096 2.053968,2.14771 3.460937,3.23438 2.813938,2.17335 6.410548,4.34622 9.371098,6.26367 1.48027,0.95873 2.80174,1.85439 3.7832,2.64844 0.98146,0.79405 1.61195,1.5003 1.73633,2.00781 0.0622,0.25376 0.019,0.44794 -0.16211,0.63867 -0.18112,0.19074 -0.51717,0.36881 -1.03516,0.50782 -1.03598,0.278 -2.78244,0.40427 -5.39648,0.33398 -12.011187,-0.32297 -18.014975,-0.55232 -21.013674,-0.70117 -1.49935,-0.0744 -2.246629,-0.12877 -2.617188,-0.16406 -0.148674,-0.0142 -0.204702,-0.0236 -0.253906,-0.0312 v -16.98243 l -11.888672,-2.90625 -0.002,0.16797 -0.263672,55.0625 12.154297,-3.25781 v -17.48633 c 0.04342,-0.0134 0.112858,-0.0325 0.283203,-0.0586 0.387617,-0.0594 1.178656,-0.14123 2.763672,-0.22461 3.170031,-0.16676 9.518416,-0.34146 22.22461,-0.37109 2.39234,-0.006 3.95282,0.16883 4.82812,0.47656 0.43765,0.15386 0.69797,0.3399 0.81836,0.53125 0.12039,0.19135 0.1241,0.39724 0.0137,0.66406 -0.22086,0.53364 -0.93726,1.2422 -1.97851,2.0332 -1.04126,0.79101 -2.40395,1.67489 -3.91211,2.62305 -3.01632,1.89632 -6.61686,4.04424 -9.429687,6.21875 -1.406413,1.08726 -2.615652,2.18039 -3.458984,3.25977 -0.843333,1.07937 -1.326837,2.15154 -1.242188,3.18945 0.21244,2.60478 1.717898,5.31125 3.814453,7.37109 2.096555,2.05984 4.789776,3.47733 7.408196,3.46485 4.32168,-0.0206 8.76829,-2.29858 13.00977,-5.6875 4.24148,-3.38893 8.28049,-7.89452 11.78516,-12.39453 7.00934,-9.00004 11.87695,-17.98633 11.87695,-17.98633 l 0.0352,-0.0625 -0.0352,-0.0645 c 0,0 -4.85543,-9.02699 -11.85938,-18.07031 -3.50197,-4.52166 -7.54166,-9.04784 -11.78515,-12.45508 -4.24349,-3.40724 -8.69487,-5.70044 -13.02735,-5.72656 z m 0,0.26367 c 4.23999,0.0256 8.64316,2.28106 12.86133,5.66797 4.21817,3.38691 8.24819,7.90074 11.74219,12.41211 6.9482,8.97134 11.74399,17.86891 11.79883,17.9707 -0.0539,0.0994 -4.86014,8.9593 -11.81446,17.88868 -3.49667,4.48975 -7.52798,8.98092 -11.74414,12.34961 -4.21615,3.36868 -8.61444,5.6107 -12.84375,5.63085 -2.52161,0.012 -5.16379,-1.36782 -7.222652,-3.39062 -2.058857,-2.0228 -3.530942,-4.68482 -3.736328,-7.20313 -0.07678,-0.94145 0.364515,-1.95307 1.185547,-3.0039 0.821032,-1.05084 2.017544,-2.13524 3.414062,-3.21485 2.793041,-2.15921 6.387781,-4.30423 9.408201,-6.20312 1.51021,-0.94944 2.87765,-1.83604 3.93164,-2.63672 1.05399,-0.80068 1.79848,-1.50463 2.0625,-2.14258 0.13202,-0.31897 0.13346,-0.63824 -0.0351,-0.90625 -0.16862,-0.268 -0.48443,-0.47584 -0.95313,-0.64062 -0.93739,-0.32956 -2.51084,-0.49585 -4.91601,-0.49024 -12.708412,0.0297 -19.061369,0.20387 -22.240238,0.3711 -1.589435,0.0836 -2.384254,0.16447 -2.789063,0.22656 -0.202404,0.031 -0.306739,0.0572 -0.371093,0.0801 -0.03218,0.0114 -0.05381,0.0205 -0.07813,0.0391 -0.0061,0.005 -0.01326,0.0111 -0.01953,0.0176 -0.0063,0.007 -0.0172,0.0228 -0.01758,0.0234 -7.57e-4,0.001 -0.02148,0.0742 -0.02148,0.0742 v 17.36915 l -11.623047,3.11523 0.263672,-54.54883 11.359375,2.7793 v 16.88281 c 1.05e-4,0.004 0,0.0117 0,0.0117 1e-5,3e-5 0.02144,0.0605 0.02148,0.0606 8.8e-5,1.3e-4 0.03284,0.0349 0.0332,0.0351 3.59e-4,2.7e-4 0.01539,0.0106 0.02148,0.0137 0.0061,0.003 0.0108,0.004 0.01563,0.006 0.01931,0.007 0.03531,0.0105 0.0625,0.0156 0.05437,0.0102 0.150591,0.0249 0.339843,0.043 0.378506,0.036 1.12951,0.0895 2.63086,0.16406 3.0027,0.14905 9.005392,0.37818 21.017581,0.70117 2.62552,0.0706 4.3848,-0.0499 5.47265,-0.34179 0.54393,-0.14597 0.92322,-0.33457 1.1582,-0.58204 0.23499,-0.24746 0.30728,-0.56341 0.22852,-0.88476 -0.15751,-0.64271 -0.832,-1.34447 -1.82812,-2.15039 -0.99613,-0.80593 -2.32366,-1.70163 -3.80665,-2.66211 -2.96598,-1.92097 -6.55641,-4.09507 -9.351556,-6.25391 -1.397576,-1.07941 -2.597108,-2.15472 -3.416016,-3.1875 -0.818908,-1.03278 -1.252009,-2.01608 -1.160156,-2.91015 0.25843,-2.51552 1.731702,-5.18003 3.777344,-7.20508 2.045644,-2.02506 4.660184,-3.40583 7.181634,-3.39063 z"
         id="path16181" />
      <path
         style="color:#000000;fill:#ff0000;fill-opacity:1;fill-rule:evenodd;stroke:#000000;stroke-opacity:1;-inkscape-stroke:none"
         d="m 105.30273,128.01953 c -2.8002,-0.0155 -5.568734,1.48102 -7.720699,3.61133 -2.153002,2.13133 -3.715285,4.91953 -3.998047,7.67187 -0.122121,1.18871 0.437104,2.34707 1.320313,3.46094 0.883317,1.11402 2.124231,2.22003 3.548828,3.32031 2.849465,2.20079 6.454175,4.37642 9.404295,6.28711 1.47497,0.9553 2.78646,1.84554 3.74024,2.61719 0.95015,0.76873 1.50753,1.50603 1.56445,1.73828 0.0354,0.14449 0.0527,0.0791 -0.0391,0.17578 -0.0755,0.0795 -0.33375,0.24381 -0.80078,0.36914 -0.93673,0.25137 -2.66194,0.38611 -5.25391,0.31641 -12.009293,-0.32292 -18.010863,-0.5527 -21.001954,-0.70117 -1.380764,-0.0685 -2.011203,-0.11622 -2.396484,-0.15039 v -16.91992 l -12.88086,-3.14844 -0.0098,0.79883 -0.267578,55.71875 13.158203,-3.52735 v -17.44531 c 0.379494,-0.0542 1.077416,-0.12839 2.572265,-0.20703 3.153351,-0.16588 9.499186,-0.34147 22.201168,-0.37109 2.36743,-0.006 3.90437,0.1835 4.66016,0.44921 0.3772,0.13261 0.53537,0.28421 0.56054,0.32422 0.0368,0.0584 0.0488,0.0278 -0.0254,0.20703 -0.13455,0.32514 -0.80367,1.05536 -1.81836,1.82618 -1.0168,0.77243 -2.37048,1.65178 -3.875,2.59765 -3.00856,1.89144 -6.62058,4.04276 -9.470696,6.2461 -1.42499,1.10162 -2.661612,2.21461 -3.546875,3.34765 -0.88515,1.13289 -1.445158,2.31961 -1.345703,3.53906 0.225716,2.76756 1.795509,5.55808 3.962891,7.6875 2.167451,2.1295 4.959263,3.62077 7.759763,3.60743 4.49573,-0.0214 9.03106,-2.36979 13.32031,-5.79688 4.28938,-3.4272 8.34751,-7.95923 11.86719,-12.47851 7.03483,-9.03278 11.91147,-18.03488 11.91797,-18.04688 l 0.004,-0.008 0.16797,-0.29688 -0.16797,-0.30859 v 0.004 c 0,0 -4.87022,-9.05841 -11.90429,-18.14063 -3.51704,-4.54112 -7.57594,-9.09347 -11.86719,-12.53906 -4.29119,-3.44554 -8.8291,-5.80877 -13.33594,-5.83594 -0.001,-1e-5 -0.003,1e-5 -0.004,0 z m -0.004,1.26367 c 4.06477,0.0246 8.38252,2.21019 12.55273,5.5586 4.17029,3.34846 8.18127,7.83626 11.66016,12.32812 6.77242,8.74438 11.3698,17.20852 11.61523,17.66211 -0.2446,0.44916 -4.8521,8.88002 -11.63086,17.58399 -3.48151,4.47029 -7.49383,8.93519 -11.66211,12.26562 -4.16818,3.33036 -8.47894,5.50217 -12.5332,5.52148 -2.33755,0.0111 -4.8837,-1.29545 -6.871093,-3.24804 -1.987413,-1.95261 -3.395918,-4.53288 -3.58789,-6.88672 -0.06181,-0.75783 0.303335,-1.65765 1.082031,-2.6543 0.778677,-0.99663 1.948497,-2.06191 3.326172,-3.12695 2.75557,-2.13024 6.33907,-4.27206 9.36719,-6.17578 1.51381,-0.95171 2.89046,-1.84297 3.96875,-2.66211 1.07608,-0.81747 1.88133,-1.52487 2.22265,-2.34961 0.17662,-0.42672 0.1903,-0.9427 -0.0742,-1.36328 -0.25643,-0.40756 -0.68443,-0.66255 -1.21094,-0.84766 -1.0529,-0.37017 -2.65526,-0.52324 -5.08399,-0.51758 -12.712575,0.0297 -19.068091,0.20299 -22.263669,0.3711 -1.597592,0.084 -2.4024,0.16532 -2.839844,0.23242 -0.218659,0.0335 -0.351206,0.0638 -0.46289,0.10351 -0.04504,0.016 -0.137983,0.056 -0.212891,0.11329 l -0.0078,0.004 -0.0059,0.006 c -0.01194,0.01 -0.0327,0.0258 -0.0625,0.0566 l -0.0059,0.006 -0.0059,0.008 c -0.06473,0.0719 -0.06798,0.0892 -0.06836,0.0899 -1.86e-4,2.7e-4 -0.002,0.002 -0.002,0.002 0,0 -0.01172,0.0195 -0.01172,0.0195 0,0 0.09259,0.0524 0.179688,0.10156 v 0.0508 c -0.105756,-0.0387 -0.212877,-0.0782 -0.212891,-0.0781 -6.1e-5,1.7e-4 -0.0048,0.0142 -0.0059,0.0176 -0.0022,0.007 -0.0031,0.009 -0.0039,0.0117 -0.0017,0.006 -0.0046,0.009 -0.0059,0.0137 -0.0026,0.009 -0.005,0.0196 -0.0078,0.0293 -0.0055,0.0194 -0.0098,0.0371 -0.0098,0.0371 l -0.01953,0.0664 v 17.05664 l -10.619141,2.84571 0.25586,-53.25977 10.363281,2.53516 v 16.49609 0.008 l -0.002,0.0801 0.03125,0.0859 c 0,0 0.0273,0.078 0.02734,0.0781 l 0.02148,0.0508 0.0293,0.0449 c 0,0 0.04962,0.0613 0.05078,0.0625 0.0012,0.001 0.0023,0.002 0.0039,0.004 0.0033,0.003 0.0074,0.009 0.01172,0.0137 0.0043,0.005 0.01,0.008 0.01367,0.0117 0.0011,10e-4 8.29e-4,0.003 0.002,0.004 l 0.002,0.002 c 0.001,0.001 0.0034,0.003 0.0059,0.006 l 0.05664,0.0508 c 1.8e-4,1.4e-4 0.02558,0.0171 0.03516,0.0234 0.0096,0.006 0.0056,0.007 0.06055,0.0352 l 0.002,0.002 0.0039,0.002 c 0.05788,0.0285 0.09159,0.0389 0.04492,0.0195 l 0.0098,0.004 0.01172,0.004 c 0.0523,0.019 0.107628,0.0309 0.140625,0.0371 0.07388,0.0139 0.185962,0.0298 0.384765,0.0488 0.394083,0.0375 1.147411,0.0913 2.652344,0.16602 3.010311,0.14943 9.015243,0.37813 21.029293,0.70117 2.6468,0.0712 4.43034,-0.0414 5.61524,-0.35937 0.59186,-0.15884 1.05995,-0.3704 1.39258,-0.72071 0.34606,-0.36443 0.46519,-0.884 0.35156,-1.34765 -0.21603,-0.8815 -0.97935,-1.59415 -2,-2.41992 -1.02417,-0.82862 -2.36185,-1.72979 -3.84961,-2.69336 -2.97603,-1.92748 -6.55667,-4.09898 -9.316407,-6.23047 -1.379974,-1.06582 -2.553881,-2.12265 -3.330078,-3.10156 -0.776237,-0.97897 -1.126401,-1.85079 -1.054687,-2.54883 0.242355,-2.35905 1.655759,-4.94517 3.630859,-6.90039 1.975023,-1.95515 4.489333,-3.26018 6.826173,-3.2461 z"
         id="path16183" />
    </g>
    <path
       style="opacity:0.550143;fill:#ffffff;fill-opacity:1;fill-rule:evenodd;stroke:#000000;stroke-width:0.710456;stroke-linecap:round;stroke-linejoin:round;stroke-miterlimit:4;stroke-dasharray:none;stroke-opacity:1;paint-order:stroke fill markers"
       d="m 78.524986,186.32317 c -1.534274,-0.53846 -3.626408,-1.93184 -4.681072,-3.11763 -2.282393,-2.56618 -3.455093,-5.69812 -2.688669,-7.18064 1.119539,-2.16558 4.251262,-4.67355 11.36564,-9.10195 5.680419,-3.53581 7.448378,-4.89383 8.086074,-6.21113 1.009288,-2.08491 -0.261702,-3.28064 -3.900067,-3.66914 -3.44542,-0.36789 -26.635908,0.11708 -28.541323,0.59687 -0.562809,0.14172 -0.830948,0.32081 -0.907489,0.60612 -0.05975,0.22273 -0.109797,4.17055 -0.11121,8.77294 l -0.0026,8.36798 -4.652375,1.24899 c -2.558804,0.68695 -4.663122,1.23538 -4.676261,1.21874 -0.08695,-0.11016 0.239868,-51.43802 0.328083,-51.52624 0.06085,-0.0608 2.106967,0.37746 4.546936,0.974 l 4.436308,1.08463 0.05565,8.31131 c 0.0494,7.37784 0.09,8.34564 0.361469,8.61698 0.220842,0.22074 0.873741,0.34937 2.349682,0.4629 3.774091,0.29032 14.957605,0.62442 21.405257,0.63946 5.754913,0.0134 6.47949,-0.0192 7.278672,-0.32754 1.129027,-0.43565 1.8381,-1.25539 1.8381,-2.12497 0,-1.74217 -1.441109,-3.01163 -8.806188,-7.75726 -6.32837,-4.07764 -8.998278,-6.19388 -10.209911,-8.09265 -0.639357,-1.00195 -0.658212,-1.58896 -0.103317,-3.21663 1.551498,-4.55101 6.1952,-8.15537 10.0867,-7.82912 3.440589,0.28845 7.237129,2.04518 11.194425,5.17987 6.873497,5.44469 15.03974,15.63974 21.8465,27.27398 0.7526,1.28637 1.36837,2.3975 1.36837,2.46918 0,0.26914 -3.88752,6.5845 -5.83435,9.47803 -8.26503,12.28412 -16.095065,20.32308 -22.978629,23.59177 -2.293014,1.08885 -3.662543,1.47668 -5.680372,1.60863 -1.265401,0.0827 -1.70517,0.0276 -2.774063,-0.34748 z"
       id="path17130" />
    <path
       id="path17243"
       style="opacity:0.550143;fill:#ff0000;fill-opacity:1;fill-rule:evenodd;stroke:#000000;stroke-width:0.710456;stroke-linecap:round;stroke-linejoin:round;stroke-miterlimit:4;stroke-dasharray:none;stroke-opacity:1;paint-order:stroke fill markers"
       d="m 139.68772,25.120838 c -0.14367,0.0016 -0.28613,0.0058 -0.42737,0.01395 -1.19866,0.06939 -1.71091,0.207582 -2.83187,0.762744 -2.46218,1.219417 -4.34043,3.126353 -5.63428,5.721098 -1.00669,2.018869 -1.13008,3.114051 -0.47593,4.228682 1.07849,1.837709 3.20978,3.530767 10.66291,8.471318 7.23372,4.79511 8.26778,5.732164 8.26978,7.487915 7.9e-4,0.969769 -0.41953,1.568828 -1.52394,2.170924 -0.59411,0.324321 -1.2031,0.345996 -9.09557,0.326597 -12.38464,-0.03047 -21.79908,-0.462653 -22.36349,-1.026295 -0.12374,-0.123558 -0.22885,-3.169991 -0.29145,-8.449612 -0.0595,-5.021191 -0.17017,-8.320643 -0.28216,-8.421192 -0.10127,-0.09093 -1.91806,-0.567079 -4.03748,-1.057815 -2.11941,-0.490752 -3.99007,-0.928251 -4.15736,-0.972553 -0.22873,-0.06062 -0.33108,0.09521 -0.4129,0.628904 -0.0598,0.39034 -0.16874,11.948734 -0.24184,25.685253 -0.13038,24.499995 -0.12629,24.973285 0.22479,24.868775 0.19684,-0.0586 2.13457,-0.57851 4.30567,-1.15549 2.17111,-0.57698 4.0953,-1.0944 4.27623,-1.1498 0.30705,-0.0941 0.32866,-0.67624 0.32866,-8.74469 v -8.6434 l 0.62219,-0.259932 c 1.05095,-0.439121 8.57039,-0.723093 19.58536,-0.739489 9.49478,-0.01413 10.42921,0.01225 11.44737,0.326594 2.5728,0.794329 2.92175,2.521722 0.93792,4.642609 -0.96167,1.028098 -3.03923,2.488078 -7.87393,5.533518 -4.35245,2.74166 -7.22542,4.82805 -8.82582,6.41046 -2.04387,2.0209 -2.35068,2.99396 -1.60921,5.10357 1.08452,3.08565 3.66906,5.76408 6.86625,7.11584 1.01856,0.43065 1.30295,0.46706 3.00499,0.38706 2.16419,-0.10174 3.46408,-0.48192 6.0048,-1.75545 6.16247,-3.08894 12.91071,-9.75309 20.20858,-19.95692 2.79349,-3.905836 8.09201,-12.265447 8.09201,-12.767187 0,-0.510429 -4.52784,-7.887724 -7.06003,-11.503173 -3.95025,-5.640149 -7.90435,-10.457069 -11.65045,-14.191898 -5.98019,-5.962195 -11.58878,-9.136218 -16.04243,-9.090919 z m 0.3421,4.562512 c 1.13854,0.0032 2.62807,0.272637 3.74292,0.727088 6.02548,2.45618 15.09767,10.619767 25.26357,22.733495 2.18117,2.5991 5.35915,6.621679 5.27875,6.682279 -0.0379,0.02859 -4.92375,-0.790897 -10.85722,-1.821076 l -10.78848,-1.873272 2.86649,-1.443323 c 1.57664,-0.794025 2.86757,-1.506447 2.86804,-1.582848 0.003,-0.441651 -4.80196,-4.505685 -7.45536,-6.306074 -2.31765,-1.572591 -3.29234,-2.089629 -5.117,-2.71508 -1.32937,-0.455682 -1.37509,-0.491911 -1.42679,-1.12603 -0.0294,-0.360339 0.12637,-1.392002 0.34623,-2.292884 0.21986,-0.900877 0.37487,-1.66337 0.34417,-1.694469 -0.0307,-0.03106 -1.17086,-0.193828 -2.5337,-0.361219 -1.36284,-0.16741 -3.1273,-0.442828 -3.92069,-0.611849 -2.52309,-0.537488 -4.43872,-1.444766 -4.12068,-1.952334 0.32069,-0.51176 4.68617,-1.310796 7.12619,-1.303798 0.59446,0.0016 1.07834,-0.06048 1.07435,-0.137975 -0.004,-0.07757 -0.51464,-0.524121 -1.13585,-0.993222 -1.2176,-0.91944 -3.34288,-3.065121 -3.34088,-3.372919 5.3e-4,-0.103722 0.23436,-0.277143 0.51935,-0.386024 0.30401,-0.11616 0.74908,-0.169466 1.26659,-0.168466 z m 10.59263,8.764842 c -0.0379,-0.0011 -0.0618,0.01114 -0.0708,0.03824 -0.12387,0.36408 1.00388,2.139339 2.55644,4.02301 0.82857,1.005266 3.48092,3.76995 5.89369,6.143811 3.8712,3.808769 5.02249,5.15726 4.68654,5.489069 -0.0415,0.04102 -0.571,0.113647 -1.17667,0.161748 -0.60566,0.04807 -1.31281,0.130418 -1.57148,0.182417 -0.46202,0.09294 -0.46349,0.0991 -0.0961,0.378272 1.30878,0.994511 4.76057,2.358657 9.84436,3.889169 1.70273,0.51263 3.22251,0.93286 3.37757,0.93586 0.15507,0.0024 -0.19194,-0.438155 -0.77153,-0.979787 -0.57958,-0.541639 -3.31308,-3.123517 -6.07405,-5.737116 -9.20348,-8.71225 -15.82691,-14.501595 -16.59795,-14.524693 z m 23.69261,21.379571 c 0.0804,0.0606 -3.09758,4.083698 -5.27875,6.682798 -10.1659,12.11373 -19.23809,20.27731 -25.26357,22.73349 -1.11485,0.45446 -2.60438,0.72335 -3.74292,0.72657 -0.51751,0.001 -0.96258,-0.0518 -1.26659,-0.16794 -0.28499,-0.10888 -0.5187,-0.28282 -0.51935,-0.38654 -0.002,-0.3078 2.12328,-2.45297 3.34088,-3.37241 0.62121,-0.4691 1.13217,-0.91616 1.13585,-0.99373 0.004,-0.0775 -0.47989,-0.13966 -1.07435,-0.13798 -2.44002,0.007 -6.8055,-0.79204 -7.12619,-1.3038 -0.31804,-0.50757 1.59759,-1.41484 4.12068,-1.95233 0.79339,-0.16902 2.55785,-0.44444 3.92069,-0.61185 1.36284,-0.16739 2.50302,-0.33016 2.5337,-0.36122 0.0307,-0.0311 -0.12431,-0.79359 -0.34417,-1.69447 -0.21986,-0.90088 -0.37561,-1.93254 -0.34623,-2.29288 0.0517,-0.63412 0.0974,-0.67035 1.42679,-1.12603 1.82466,-0.62545 2.79935,-1.14249 5.117,-2.71508 2.6534,-1.80039 7.4581,-5.864428 7.45536,-6.306078 -4.7e-4,-0.0764 -1.2914,-0.788303 -2.86804,-1.58233 l -2.86649,-1.443842 10.78848,-1.873269 c 5.93347,-1.030181 10.8193,-1.849667 10.85722,-1.821079 z m -0.24908,0.136427 c -0.15506,0.003 -1.67484,0.423746 -3.37757,0.936376 -5.08379,1.530512 -8.53558,2.894142 -9.84436,3.888653 -0.36737,0.27917 -0.3659,0.285848 0.0961,0.378788 0.25867,0.052 0.96582,0.133829 1.57148,0.181901 0.60567,0.0481 1.13514,0.120727 1.17667,0.161748 0.33595,0.331808 -0.81534,1.6803 -4.68654,5.489065 -2.41277,2.37386 -5.06512,5.13855 -5.89369,6.14381 -1.55256,1.88367 -2.68031,3.65894 -2.55644,4.02302 0.009,0.0271 0.0329,0.0393 0.0708,0.0382 0.77104,-0.0231 7.39447,-5.81245 16.59795,-14.524698 2.76097,-2.613602 5.49447,-5.195477 6.07405,-5.737119 0.57959,-0.541629 0.9266,-0.982205 0.77153,-0.979784 z" />
    <path
       style="opacity:0.550143;fill:#800000;fill-opacity:1;fill-rule:evenodd;stroke:#000000;stroke-width:0;stroke-linecap:round;stroke-linejoin:round;stroke-miterlimit:4;stroke-dasharray:none;stroke-opacity:1;paint-order:stroke fill markers"
       d="m 35.292247,43.807619 c -0.284313,0.11064 -0.516932,0.28601 -0.516932,0.38973 0,0.30781 2.138238,2.43974 3.361515,3.35161 0.624118,0.46524 1.138161,0.90933 1.14232,0.98687 0.0042,0.0775 -0.478827,0.14263 -1.073295,0.14465 -2.440006,0.008 -6.800371,0.83374 -7.117879,1.34748 -0.314907,0.50953 1.60624,1.40551 4.132604,1.92734 0.794427,0.1641 2.56029,0.4284 3.924141,0.58735 1.36385,0.15894 2.504987,0.31425 2.535856,0.34512 0.03087,0.0309 -0.119189,0.79432 -0.333467,1.69655 -0.214278,0.90222 -0.363734,1.93508 -0.332121,2.29523 0.05563,0.63379 0.1017,0.66968 1.433891,1.11711 1.828517,0.61412 2.806403,1.12527 5.133768,2.68346 2.664505,1.78391 7.493934,5.81778 7.493934,6.25945 0,0.0764 -1.285925,0.79656 -2.857611,1.60035 l -2.857611,1.46144 10.799548,1.80617 c 5.93974,0.99338 10.83042,1.78258 10.86816,1.75375 0.08,-0.0611 -3.12224,-4.06381 -5.31948,-6.64933 -10.240825,-12.05047 -19.363531,-20.1578 -25.404119,-22.57657 -1.625674,-0.65095 -4.042717,-0.9054 -5.013222,-0.52776 z"
       id="path17759" />
  </g>
</svg>
